<svg version="1.1" xmlns="http://www.w3.org/2000/svg" xmlns:xlink="http://www.w3.org/1999/xlink" width="763.7999267578125" height="583"><defs/><g><g><path fill="#C0C0C0" stroke="none" paint-order="stroke fill markers" d=" M 57 100 C 57 94.47715199999999 61.477152000000004 90 67 90 C 72.522848 90 77 94.47715199999999 77 100 C 77 105.52284800000001 72.522848 110 67 110 C 61.477152000000004 110 57 105.52284800000001 57 100 Z" fill-opacity="0.2"/></g><g><path fill="#000000" stroke="none" paint-order="stroke fill markers" d=" M 50 93 C 50 87.47715199999999 54.477152000000004 83 60 83 C 65.522848 83 70 87.47715199999999 70 93 C 70 98.52284800000001 65.522848 103 60 103 C 54.477152000000004 103 50 98.52284800000001 50 93 Z"/></g><g><path fill="#C0C0C0" stroke="none" paint-order="stroke fill markers" d=" M 116 66 L 116 66 Q 119 66 119 69 L 119 135 Q 119 138 116 138 L 116 138 Q 113 138 113 135 L 113 69 Q 113 66 116 66 Z" fill-opacity="0.2"/></g><g><path fill="#000000" stroke="none" paint-order="stroke fill markers" d=" M 109 59 L 109 59 Q 112 59 112 62 L 112 128 Q 112 131 109 131 L 109 131 Q 106 131 106 128 L 106 62 Q 106 59 109 59 Z"/></g><g><path fill="#ffffff" stroke="none" paint-order="stroke fill markers" d=" M 226 72 C 226 64.8202976 231.8202976 59 239 59 C 246.1797024 59 252 64.8202976 252 72 C 252 79.1797024 246.1797024 85 239 85 C 231.8202976 85 226 79.1797024 226 72 Z"/></g><g><path fill="none" stroke="#000000" paint-order="fill stroke markers" d=" M 226 72 C 226 64.8202976 231.8202976 59 239 59 C 246.1797024 59 252 64.8202976 252 72 C 252 79.1797024 246.1797024 85 239 85 C 231.8202976 85 226 79.1797024 226 72 Z" stroke-miterlimit="10" stroke-dasharray=""/></g><g><g><path fill="none" stroke="none"/><text fill="#000000" stroke="none" font-family="&quot;Source Code Pro&quot;" font-size="26px" font-style="normal" font-weight="normal" text-decoration="undefined" x="285.2000045776367" y="112" text-anchor="start" dominant-baseline="text-before-edge" transform="matrix(1 0 0 1 -54 -53)">A</text></g></g><g><path fill="#C0C0C0" stroke="none" paint-order="stroke fill markers" d=" M 195 106 L 285.7999267578125 106 Q 295.7999267578125 106 295.7999267578125 116 L 295.7999267578125 138 Q 295.7999267578125 148 285.7999267578125 148 L 195 148 Q 185 148 185 138 L 185 116 Q 185 106 195 106 Z" fill-opacity="0.2"/></g><g><path fill="#ffffff" stroke="none" paint-order="stroke fill markers" d=" M 188 99 L 278.7999267578125 99 Q 288.7999267578125 99 288.7999267578125 109 L 288.7999267578125 131 Q 288.7999267578125 141 278.7999267578125 141 L 188 141 Q 178 141 178 131 L 178 109 Q 178 99 188 99 Z"/></g><g><path fill="none" stroke="#000000" paint-order="fill stroke markers" d=" M 188 99 L 278.7999267578125 99 Q 288.7999267578125 99 288.7999267578125 109 L 288.7999267578125 131 Q 288.7999267578125 141 278.7999267578125 141 L 188 141 Q 178 141 178 131 L 178 109 Q 178 99 188 99 Z" stroke-miterlimit="10" stroke-dasharray=""/></g><g><g><path fill="none" stroke="none"/><text fill="#000000" stroke="none" font-family="&quot;Source Code Pro&quot;" font-size="14px" font-style="normal" font-weight="bold" text-decoration="undefined" x="287.89996337890625" y="166" text-anchor="middle" dominant-baseline="central" transform="matrix(1 0 0 1 -54 -53)">Create timer</text></g></g><g><path fill="#C0C0C0" stroke="none" paint-order="stroke fill markers" d=" M 203 178 L 285.3999328613281 178 Q 295.3999328613281 178 295.3999328613281 188 L 295.3999328613281 210 Q 295.3999328613281 220 285.3999328613281 220 L 203 220 Q 193 220 193 210 L 193 188 Q 193 178 203 178 Z" fill-opacity="0.2"/></g><g><path fill="#ffffff" stroke="none" paint-order="stroke fill markers" d=" M 196 171 L 278.3999328613281 171 Q 288.3999328613281 171 288.3999328613281 181 L 288.3999328613281 203 Q 288.3999328613281 213 278.3999328613281 213 L 196 213 Q 186 213 186 203 L 186 181 Q 186 171 196 171 Z"/></g><g><path fill="none" stroke="#000000" paint-order="fill stroke markers" d=" M 196 171 L 278.3999328613281 171 Q 288.3999328613281 171 288.3999328613281 181 L 288.3999328613281 203 Q 288.3999328613281 213 278.3999328613281 213 L 196 213 Q 186 213 186 203 L 186 181 Q 186 171 196 171 Z" stroke-miterlimit="10" stroke-dasharray=""/></g><g><g><path fill="none" stroke="none"/><text fill="#000000" stroke="none" font-family="&quot;Source Code Pro&quot;" font-size="14px" font-style="normal" font-weight="bold" text-decoration="undefined" x="291.69996643066406" y="238" text-anchor="middle" dominant-baseline="central" transform="matrix(1 0 0 1 -54 -53)">Start timer</text></g></g><g><path fill="#ffffff" stroke="none" paint-order="stroke fill markers" d=" M 226 256 C 226 248.8202976 231.8202976 243 239 243 C 246.1797024 243 252 248.8202976 252 256 C 252 263.1797024 246.1797024 269 239 269 C 231.8202976 269 226 263.1797024 226 256 Z"/></g><g><path fill="none" stroke="#000000" paint-order="fill stroke markers" d=" M 226 256 C 226 248.8202976 231.8202976 243 239 243 C 246.1797024 243 252 248.8202976 252 256 C 252 263.1797024 246.1797024 269 239 269 C 231.8202976 269 226 263.1797024 226 256 Z" stroke-miterlimit="10" stroke-dasharray=""/></g><g><g><path fill="none" stroke="none"/><text fill="#000000" stroke="none" font-family="&quot;Source Code Pro&quot;" font-size="26px" font-style="normal" font-weight="normal" text-decoration="undefined" x="285.2000045776367" y="296" text-anchor="start" dominant-baseline="text-before-edge" transform="matrix(1 0 0 1 -54 -53)">A</text></g></g><g><path fill="#C0C0C0" stroke="none" paint-order="stroke fill markers" d=" M 211 306 L 284.99993896484375 306 Q 294.99993896484375 306 294.99993896484375 316 L 294.99993896484375 338 Q 294.99993896484375 348 284.99993896484375 348 L 211 348 Q 201 348 201 338 L 201 316 Q 201 306 211 306 Z" fill-opacity="0.2"/></g><g><path fill="#ffffff" stroke="none" paint-order="stroke fill markers" d=" M 204 299 L 277.99993896484375 299 Q 287.99993896484375 299 287.99993896484375 309 L 287.99993896484375 331 Q 287.99993896484375 341 277.99993896484375 341 L 204 341 Q 194 341 194 331 L 194 309 Q 194 299 204 299 Z"/></g><g><path fill="none" stroke="#000000" paint-order="fill stroke markers" d=" M 204 299 L 277.99993896484375 299 Q 287.99993896484375 299 287.99993896484375 309 L 287.99993896484375 331 Q 287.99993896484375 341 277.99993896484375 341 L 204 341 Q 194 341 194 331 L 194 309 Q 194 299 204 299 Z" stroke-miterlimit="10" stroke-dasharray=""/></g><g><g><path fill="none" stroke="none"/><text fill="#000000" stroke="none" font-family="&quot;Source Code Pro&quot;" font-size="14px" font-style="normal" font-weight="bold" text-decoration="undefined" x="295.4999694824219" y="366" text-anchor="middle" dominant-baseline="central" transform="matrix(1 0 0 1 -54 -53)">Stop timer</text></g></g><g><path fill="#ffffff" stroke="none" paint-order="stroke fill markers" d=" M 226 384 C 226 376.8202976 231.8202976 371 239 371 C 246.1797024 371 252 376.8202976 252 384 C 252 391.1797024 246.1797024 397 239 397 C 231.8202976 397 226 391.1797024 226 384 Z"/></g><g><path fill="none" stroke="#000000" paint-order="fill stroke markers" d=" M 226 384 C 226 376.8202976 231.8202976 371 239 371 C 246.1797024 371 252 376.8202976 252 384 C 252 391.1797024 246.1797024 397 239 397 C 231.8202976 397 226 391.1797024 226 384 Z" stroke-miterlimit="10" stroke-dasharray=""/></g><g><g><path fill="none" stroke="none"/><text fill="#000000" stroke="none" font-family="&quot;Source Code Pro&quot;" font-size="26px" font-style="normal" font-weight="normal" text-decoration="undefined" x="285.2000045776367" y="424" text-anchor="start" dominant-baseline="text-before-edge" transform="matrix(1 0 0 1 -54 -53)">A</text></g></g><g><path fill="#C0C0C0" stroke="none" paint-order="stroke fill markers" d=" M 203 434 L 295 434 Q 305 434 305 444 L 305 480 Q 305 490 295 490 L 203 490 Q 193 490 193 480 L 193 444 Q 193 434 203 434 Z" fill-opacity="0.2"/></g><g><path fill="#ffffff" stroke="none" paint-order="stroke fill markers" d=" M 196 427 L 288 427 Q 298 427 298 437 L 298 473 Q 298 483 288 483 L 196 483 Q 186 483 186 473 L 186 437 Q 186 427 196 427 Z"/></g><g><path fill="none" stroke="#000000" paint-order="fill stroke markers" d=" M 196 427 L 288 427 Q 298 427 298 437 L 298 473 Q 298 483 288 483 L 196 483 Q 186 483 186 473 L 186 437 Q 186 427 196 427 Z" stroke-miterlimit="10" stroke-dasharray=""/></g><g><g><path fill="none" stroke="none"/><text fill="#000000" stroke="none" font-family="&quot;Source Code Pro&quot;" font-size="14px" font-style="normal" font-weight="bold" text-decoration="undefined" x="296.5" y="494" text-anchor="middle" dominant-baseline="central" transform="matrix(1 0 0 1 -54 -53)">Get user</text><text fill="#000000" stroke="none" font-family="&quot;Source Code Pro&quot;" font-size="14px" font-style="normal" font-weight="bold" text-decoration="undefined" x="296.5" y="508" text-anchor="middle" dominant-baseline="central" transform="matrix(1 0 0 1 -54 -53)">offset time</text></g></g><g><path fill="#C0C0C0" stroke="none" paint-order="stroke fill markers" d=" M 467 538 L 574.5999145507812 538 Q 584.5999145507812 538 584.5999145507812 548 L 584.5999145507812 570 Q 584.5999145507812 580 574.5999145507812 580 L 467 580 Q 457 580 457 570 L 457 548 Q 457 538 467 538 Z" fill-opacity="0.2"/></g><g><path fill="#ffffff" stroke="none" paint-order="stroke fill markers" d=" M 460 531 L 567.5999145507812 531 Q 577.5999145507812 531 577.5999145507812 541 L 577.5999145507812 563 Q 577.5999145507812 573 567.5999145507812 573 L 460 573 Q 450 573 450 563 L 450 541 Q 450 531 460 531 Z"/></g><g><path fill="none" stroke="#000000" paint-order="fill stroke markers" d=" M 460 531 L 567.5999145507812 531 Q 577.5999145507812 531 577.5999145507812 541 L 577.5999145507812 563 Q 577.5999145507812 573 567.5999145507812 573 L 460 573 Q 450 573 450 563 L 450 541 Q 450 531 460 531 Z" stroke-miterlimit="10" stroke-dasharray=""/></g><g><g><path fill="none" stroke="none"/><text fill="#000000" stroke="none" font-family="&quot;Source Code Pro&quot;" font-size="14px" font-style="normal" font-weight="bold" text-decoration="undefined" x="568.2999572753906" y="598" text-anchor="middle" dominant-baseline="central" transform="matrix(1 0 0 1 -54 -53)">Set timer to 0</text></g></g><g><path fill="#C0C0C0" stroke="none" paint-order="stroke fill markers" d=" M 17 178 L 153 178 L 153 220 L 17 220 L 27.5 199" fill-opacity="0.2"/></g><g><path fill="#ffffff" stroke="none" paint-order="stroke fill markers" d=" M 10 171 L 146 171 L 146 213 L 10 213 L 20.5 192"/></g><g><path fill="none" stroke="#000000" paint-order="fill stroke markers" d=" M 10 171 L 146 171 L 146 213 L 10 213 L 20.5 192 L 10 171" stroke-miterlimit="10" stroke-dasharray=""/></g><g><g><path fill="none" stroke="none"/><text fill="#000000" stroke="none" font-family="&quot;Source Code Pro&quot;" font-size="14px" font-style="normal" font-weight="bold" text-decoration="undefined" x="132.5" y="238" text-anchor="middle" dominant-baseline="central" transform="matrix(1 0 0 1 -54 -53)">Start event</text></g></g><g><path fill="#C0C0C0" stroke="none" paint-order="stroke fill markers" d=" M 17 242 L 153 242 L 153 284 L 17 284 L 27.5 263" fill-opacity="0.2"/></g><g><path fill="#ffffff" stroke="none" paint-order="stroke fill markers" d=" M 10 235 L 146 235 L 146 277 L 10 277 L 20.5 256"/></g><g><path fill="none" stroke="#000000" paint-order="fill stroke markers" d=" M 10 235 L 146 235 L 146 277 L 10 277 L 20.5 256 L 10 235" stroke-miterlimit="10" stroke-dasharray=""/></g><g><g><path fill="none" stroke="none"/><text fill="#000000" stroke="none" font-family="&quot;Source Code Pro&quot;" font-size="14px" font-style="normal" font-weight="bold" text-decoration="undefined" x="132.5" y="302" text-anchor="middle" dominant-baseline="central" transform="matrix(1 0 0 1 -54 -53)">Restart event</text></g></g><g><path fill="#C0C0C0" stroke="none" paint-order="stroke fill markers" d=" M 17 306 L 153 306 L 153 348 L 17 348 L 27.5 327" fill-opacity="0.2"/></g><g><path fill="#ffffff" stroke="none" paint-order="stroke fill markers" d=" M 10 299 L 146 299 L 146 341 L 10 341 L 20.5 320"/></g><g><path fill="none" stroke="#000000" paint-order="fill stroke markers" d=" M 10 299 L 146 299 L 146 341 L 10 341 L 20.5 320 L 10 299" stroke-miterlimit="10" stroke-dasharray=""/></g><g><g><path fill="none" stroke="none"/><text fill="#000000" stroke="none" font-family="&quot;Source Code Pro&quot;" font-size="14px" font-style="normal" font-weight="bold" text-decoration="undefined" x="132.5" y="366" text-anchor="middle" dominant-baseline="central" transform="matrix(1 0 0 1 -54 -53)">Pause event</text></g></g><g><path fill="#C0C0C0" stroke="none" paint-order="stroke fill markers" d=" M 17 370 L 153 370 L 153 412 L 17 412 L 27.5 391" fill-opacity="0.2"/></g><g><path fill="#ffffff" stroke="none" paint-order="stroke fill markers" d=" M 10 363 L 146 363 L 146 405 L 10 405 L 20.5 384"/></g><g><path fill="none" stroke="#000000" paint-order="fill stroke markers" d=" M 10 363 L 146 363 L 146 405 L 10 405 L 20.5 384 L 10 363" stroke-miterlimit="10" stroke-dasharray=""/></g><g><g><path fill="none" stroke="none"/><text fill="#000000" stroke="none" font-family="&quot;Source Code Pro&quot;" font-size="14px" font-style="normal" font-weight="bold" text-decoration="undefined" x="132.5" y="430" text-anchor="middle" dominant-baseline="central" transform="matrix(1 0 0 1 -54 -53)">Reset event</text></g></g><g><path fill="#C0C0C0" stroke="none" paint-order="stroke fill markers" d=" M 17 442 L 153 442 L 153 484 L 17 484 L 27.5 463" fill-opacity="0.2"/></g><g><path fill="#ffffff" stroke="none" paint-order="stroke fill markers" d=" M 10 435 L 146 435 L 146 477 L 10 477 L 20.5 456"/></g><g><path fill="none" stroke="#000000" paint-order="fill stroke markers" d=" M 10 435 L 146 435 L 146 477 L 10 477 L 20.5 456 L 10 435" stroke-miterlimit="10" stroke-dasharray=""/></g><g><g><path fill="none" stroke="none"/><text fill="#000000" stroke="none" font-family="&quot;Source Code Pro&quot;" font-size="14px" font-style="normal" font-weight="bold" text-decoration="undefined" x="132.5" y="502" text-anchor="middle" dominant-baseline="central" transform="matrix(1 0 0 1 -54 -53)">Offset event</text></g></g><g><path fill="#C0C0C0" stroke="none" paint-order="stroke fill markers" d=" M 385 75.5 L 396.5 66 L 408 75.5 L 396.5 85 L 385 75.5" fill-opacity="0.2"/></g><g><path fill="#ffffff" stroke="none" paint-order="stroke fill markers" d=" M 378 68.5 L 389.5 59 L 401 68.5 L 389.5 78 L 378 68.5"/></g><g><path fill="none" stroke="#000000" paint-order="fill stroke markers" d=" M 378 68.5 L 389.5 59 L 401 68.5 L 389.5 78 L 378 68.5 L 378 68.5" stroke-miterlimit="10" stroke-dasharray=""/></g><g><path fill="#C0C0C0" stroke="none" paint-order="stroke fill markers" d=" M 569 75.5 L 580.5 66 L 592 75.5 L 580.5 85 L 569 75.5" fill-opacity="0.2"/></g><g><path fill="#ffffff" stroke="none" paint-order="stroke fill markers" d=" M 562 68.5 L 573.5 59 L 585 68.5 L 573.5 78 L 562 68.5"/></g><g><path fill="none" stroke="#000000" paint-order="fill stroke markers" d=" M 562 68.5 L 573.5 59 L 585 68.5 L 573.5 78 L 562 68.5 L 562 68.5" stroke-miterlimit="10" stroke-dasharray=""/></g><g><path fill="#C0C0C0" stroke="none" paint-order="stroke fill markers" d=" M 659 154 L 749.7999267578125 154 Q 759.7999267578125 154 759.7999267578125 164 L 759.7999267578125 186 Q 759.7999267578125 196 749.7999267578125 196 L 659 196 Q 649 196 649 186 L 649 164 Q 649 154 659 154 Z" fill-opacity="0.2"/></g><g><path fill="#ffffff" stroke="none" paint-order="stroke fill markers" d=" M 652 147 L 742.7999267578125 147 Q 752.7999267578125 147 752.7999267578125 157 L 752.7999267578125 179 Q 752.7999267578125 189 742.7999267578125 189 L 652 189 Q 642 189 642 179 L 642 157 Q 642 147 652 147 Z"/></g><g><path fill="none" stroke="#000000" paint-order="fill stroke markers" d=" M 652 147 L 742.7999267578125 147 Q 752.7999267578125 147 752.7999267578125 157 L 752.7999267578125 179 Q 752.7999267578125 189 742.7999267578125 189 L 652 189 Q 642 189 642 179 L 642 157 Q 642 147 652 147 Z" stroke-miterlimit="10" stroke-dasharray=""/></g><g><g><path fill="none" stroke="none"/><text fill="#000000" stroke="none" font-family="&quot;Source Code Pro&quot;" font-size="14px" font-style="normal" font-weight="bold" text-decoration="undefined" x="751.8999633789062" y="214" text-anchor="middle" dominant-baseline="central" transform="matrix(1 0 0 1 -54 -53)">Delete timer</text></g></g><g><path fill="#C0C0C0" stroke="none" paint-order="stroke fill markers" d=" M 689 239 C 689 231.8202976 694.8202976 226 702 226 C 709.1797024 226 715 231.8202976 715 239 C 715 246.1797024 709.1797024 252 702 252 C 694.8202976 252 689 246.1797024 689 239 Z" fill-opacity="0.2"/></g><g><path fill="none" stroke="#000000" paint-order="fill stroke markers" d=" M 682 232 C 682 224.8202976 687.8202976 219 695 219 C 702.1797024 219 708 224.8202976 708 232 C 708 239.1797024 702.1797024 245 695 245 C 687.8202976 245 682 239.1797024 682 232 Z" stroke-miterlimit="10" stroke-dasharray=""/></g><g><path fill="#000000" stroke="none" paint-order="stroke fill markers" d=" M 687 232 C 687 227.58172159999998 690.5817216 224 695 224 C 699.4182784 224 703 227.58172159999998 703 232 C 703 236.41827840000002 699.4182784 240 695 240 C 690.5817216 240 687 236.41827840000002 687 232 Z"/></g><g><path fill="#ffffff" stroke="none" paint-order="stroke fill markers" d=" M 10 552 C 10 544.8202976 15.820297600000004 539 23 539 C 30.179702399999996 539 36 544.8202976 36 552 C 36 559.1797024 30.179702399999996 565 23 565 C 15.820297600000004 565 10 559.1797024 10 552 Z"/></g><g><path fill="none" stroke="#000000" paint-order="fill stroke markers" d=" M 10 552 C 10 544.8202976 15.820297600000004 539 23 539 C 30.179702399999996 539 36 544.8202976 36 552 C 36 559.1797024 30.179702399999996 565 23 565 C 15.820297600000004 565 10 559.1797024 10 552 Z" stroke-miterlimit="10" stroke-dasharray=""/></g><g><g><path fill="none" stroke="none"/><text fill="#000000" stroke="none" font-family="&quot;Source Code Pro&quot;" font-size="26px" font-style="normal" font-weight="normal" text-decoration="undefined" x="69.20000457763672" y="592" text-anchor="start" dominant-baseline="text-before-edge" transform="matrix(1 0 0 1 -54 -53)">A</text></g></g><g><path fill="#C0C0C0" stroke="none" paint-order="stroke fill markers" d=" M 91 538 L 223.79989624023438 538 Q 233.79989624023438 538 233.79989624023438 548 L 233.79989624023438 570 Q 233.79989624023438 580 223.79989624023438 580 L 91 580 Q 81 580 81 570 L 81 548 Q 81 538 91 538 Z" fill-opacity="0.2"/></g><g><path fill="#ffffff" stroke="none" paint-order="stroke fill markers" d=" M 84 531 L 216.79989624023438 531 Q 226.79989624023438 531 226.79989624023438 541 L 226.79989624023438 563 Q 226.79989624023438 573 216.79989624023438 573 L 84 573 Q 74 573 74 563 L 74 541 Q 74 531 84 531 Z"/></g><g><path fill="none" stroke="#000000" paint-order="fill stroke markers" d=" M 84 531 L 216.79989624023438 531 Q 226.79989624023438 531 226.79989624023438 541 L 226.79989624023438 563 Q 226.79989624023438 573 216.79989624023438 573 L 84 573 Q 74 573 74 563 L 74 541 Q 74 531 84 531 Z" stroke-miterlimit="10" stroke-dasharray=""/></g><g><g><path fill="none" stroke="none"/><text fill="#000000" stroke="none" font-family="&quot;Source Code Pro&quot;" font-size="14px" font-style="normal" font-weight="bold" text-decoration="undefined" x="204.8999481201172" y="598" text-anchor="middle" dominant-baseline="central" transform="matrix(1 0 0 1 -54 -53)">previous time = 0</text></g></g><g><path fill="#C0C0C0" stroke="none" paint-order="stroke fill markers" d=" M 283 538 L 407.7998962402344 538 Q 417.7998962402344 538 417.7998962402344 548 L 417.7998962402344 570 Q 417.7998962402344 580 407.7998962402344 580 L 283 580 Q 273 580 273 570 L 273 548 Q 273 538 283 538 Z" fill-opacity="0.2"/></g><g><path fill="#ffffff" stroke="none" paint-order="stroke fill markers" d=" M 276 531 L 400.7998962402344 531 Q 410.7998962402344 531 410.7998962402344 541 L 410.7998962402344 563 Q 410.7998962402344 573 400.7998962402344 573 L 276 573 Q 266 573 266 563 L 266 541 Q 266 531 276 531 Z"/></g><g><path fill="none" stroke="#000000" paint-order="fill stroke markers" d=" M 276 531 L 400.7998962402344 531 Q 410.7998962402344 531 410.7998962402344 541 L 410.7998962402344 563 Q 410.7998962402344 573 400.7998962402344 573 L 276 573 Q 266 573 266 563 L 266 541 Q 266 531 276 531 Z" stroke-miterlimit="10" stroke-dasharray=""/></g><g><g><path fill="none" stroke="none"/><text fill="#000000" stroke="none" font-family="&quot;Source Code Pro&quot;" font-size="14px" font-style="normal" font-weight="bold" text-decoration="undefined" x="392.8999481201172" y="598" text-anchor="middle" dominant-baseline="central" transform="matrix(1 0 0 1 -54 -53)">offset time = 0</text></g></g><g><path fill="#C0C0C0" stroke="none" paint-order="stroke fill markers" d=" M 331 146 L 471 146 Q 481 146 481 156 L 481 192 Q 481 202 471 202 L 331 202 Q 321 202 321 192 L 321 156 Q 321 146 331 146 Z" fill-opacity="0.2"/></g><g><path fill="#ffffff" stroke="none" paint-order="stroke fill markers" d=" M 324 139 L 464 139 Q 474 139 474 149 L 474 185 Q 474 195 464 195 L 324 195 Q 314 195 314 185 L 314 149 Q 314 139 324 139 Z"/></g><g><path fill="none" stroke="#000000" paint-order="fill stroke markers" d=" M 324 139 L 464 139 Q 474 139 474 149 L 474 185 Q 474 195 464 195 L 324 195 Q 314 195 314 185 L 314 149 Q 314 139 324 139 Z" stroke-miterlimit="10" stroke-dasharray=""/></g><g><g><path fill="none" stroke="none"/><text fill="#000000" stroke="none" font-family="&quot;Source Code Pro&quot;" font-size="14px" font-style="normal" font-weight="bold" text-decoration="undefined" x="448.5" y="206" text-anchor="middle" dominant-baseline="central" transform="matrix(1 0 0 1 -54 -53)">Set previous time</text><text fill="#000000" stroke="none" font-family="&quot;Source Code Pro&quot;" font-size="14px" font-style="normal" font-weight="bold" text-decoration="undefined" x="448.5" y="220" text-anchor="middle" dominant-baseline="central" transform="matrix(1 0 0 1 -54 -53)">to current time</text></g></g><g><path fill="#C0C0C0" stroke="none" paint-order="stroke fill markers" d=" M 569 171.5 L 580.5 162 L 592 171.5 L 580.5 181 L 569 171.5" fill-opacity="0.2"/></g><g><path fill="#ffffff" stroke="none" paint-order="stroke fill markers" d=" M 562 164.5 L 573.5 155 L 585 164.5 L 573.5 174 L 562 164.5"/></g><g><path fill="none" stroke="#000000" paint-order="fill stroke markers" d=" M 562 164.5 L 573.5 155 L 585 164.5 L 573.5 174 L 562 164.5 L 562 164.5" stroke-miterlimit="10" stroke-dasharray=""/></g><g><path fill="#C0C0C0" stroke="none" paint-order="stroke fill markers" d=" M 523 250 L 647.39990234375 250 Q 657.39990234375 250 657.39990234375 260 L 657.39990234375 282 Q 657.39990234375 292 647.39990234375 292 L 523 292 Q 513 292 513 282 L 513 260 Q 513 250 523 250 Z" fill-opacity="0.2"/></g><g><path fill="#ffffff" stroke="none" paint-order="stroke fill markers" d=" M 516 243 L 640.39990234375 243 Q 650.39990234375 243 650.39990234375 253 L 650.39990234375 275 Q 650.39990234375 285 640.39990234375 285 L 516 285 Q 506 285 506 275 L 506 253 Q 506 243 516 243 Z"/></g><g><path fill="none" stroke="#000000" paint-order="fill stroke markers" d=" M 516 243 L 640.39990234375 243 Q 650.39990234375 243 650.39990234375 253 L 650.39990234375 275 Q 650.39990234375 285 640.39990234375 285 L 516 285 Q 506 285 506 275 L 506 253 Q 506 243 516 243 Z" stroke-miterlimit="10" stroke-dasharray=""/></g><g><g><path fill="none" stroke="none"/><text fill="#000000" stroke="none" font-family="&quot;Source Code Pro&quot;" font-size="14px" font-style="normal" font-weight="bold" text-decoration="undefined" x="632.699951171875" y="310" text-anchor="middle" dominant-baseline="central" transform="matrix(1 0 0 1 -54 -53)">Get current time</text></g></g><g><path fill="#C0C0C0" stroke="none" paint-order="stroke fill markers" d=" M 347 250 L 463 250 Q 473 250 473 260 L 473 296 Q 473 306 463 306 L 347 306 Q 337 306 337 296 L 337 260 Q 337 250 347 250 Z" fill-opacity="0.2"/></g><g><path fill="#ffffff" stroke="none" paint-order="stroke fill markers" d=" M 340 243 L 456 243 Q 466 243 466 253 L 466 289 Q 466 299 456 299 L 340 299 Q 330 299 330 289 L 330 253 Q 330 243 340 243 Z"/></g><g><path fill="none" stroke="#000000" paint-order="fill stroke markers" d=" M 340 243 L 456 243 Q 466 243 466 253 L 466 289 Q 466 299 456 299 L 340 299 Q 330 299 330 289 L 330 253 Q 330 243 340 243 Z" stroke-miterlimit="10" stroke-dasharray=""/></g><g><g><path fill="none" stroke="none"/><text fill="#000000" stroke="none" font-family="&quot;Source Code Pro&quot;" font-size="14px" font-style="normal" font-weight="bold" text-decoration="undefined" x="452.5" y="310" text-anchor="middle" dominant-baseline="central" transform="matrix(1 0 0 1 -54 -53)">Send deltaTime</text><text fill="#000000" stroke="none" font-family="&quot;Source Code Pro&quot;" font-size="14px" font-style="normal" font-weight="bold" text-decoration="undefined" x="452.5" y="324" text-anchor="middle" dominant-baseline="central" transform="matrix(1 0 0 1 -54 -53)">to Updatables</text></g></g><g><path fill="#C0C0C0" stroke="none" paint-order="stroke fill markers" d=" M 523 330 L 639 330 Q 649 330 649 340 L 649 418 Q 649 428 639 428 L 523 428 Q 513 428 513 418 L 513 340 Q 513 330 523 330 Z" fill-opacity="0.2"/></g><g><path fill="#ffffff" stroke="none" paint-order="stroke fill markers" d=" M 516 323 L 632 323 Q 642 323 642 333 L 642 411 Q 642 421 632 421 L 516 421 Q 506 421 506 411 L 506 333 Q 506 323 516 323 Z"/></g><g><path fill="none" stroke="#000000" paint-order="fill stroke markers" d=" M 516 323 L 632 323 Q 642 323 642 333 L 642 411 Q 642 421 632 421 L 516 421 Q 506 421 506 411 L 506 333 Q 506 323 516 323 Z" stroke-miterlimit="10" stroke-dasharray=""/></g><g><g><path fill="none" stroke="none"/><text fill="#000000" stroke="none" font-family="&quot;Source Code Pro&quot;" font-size="14px" font-style="normal" font-weight="bold" text-decoration="undefined" x="628.5" y="390" text-anchor="middle" dominant-baseline="central" transform="matrix(1 0 0 1 -54 -53)">   current time</text><text fill="#000000" stroke="none" font-family="&quot;Source Code Pro&quot;" font-size="14px" font-style="normal" font-weight="bold" text-decoration="undefined" x="628.5" y="404" text-anchor="middle" dominant-baseline="central" transform="matrix(1 0 0 1 -54 -53)">- previous time</text><text fill="#000000" stroke="none" font-family="&quot;Source Code Pro&quot;" font-size="14px" font-style="normal" font-weight="bold" text-decoration="undefined" x="628.5" y="418" text-anchor="middle" dominant-baseline="central" transform="matrix(1 0 0 1 -54 -53)">+   offset time</text><text fill="#000000" stroke="none" font-family="&quot;Source Code Pro&quot;" font-size="14px" font-style="normal" font-weight="bold" text-decoration="undefined" x="628.5" y="432" text-anchor="middle" dominant-baseline="central" transform="matrix(1 0 0 1 -54 -53)">---------------</text><text fill="#000000" stroke="none" font-family="&quot;Source Code Pro&quot;" font-size="14px" font-style="normal" font-weight="bold" text-decoration="undefined" x="628.5" y="446" text-anchor="middle" dominant-baseline="central" transform="matrix(1 0 0 1 -54 -53)">deltaTime</text></g></g><g><path fill="none" stroke="#000000" paint-order="fill stroke markers" d=" M 70 95 L 106 95" stroke-miterlimit="10" stroke-dasharray=""/></g><g><path fill="none" stroke="#000000" paint-order="fill stroke markers" d=" M 95.83732514237585 99.209517756016 L 106 95 L 95.83732514237585 90.790482243984" stroke-miterlimit="10" stroke-dasharray=""/></g><g><path fill="none" stroke="#000000" paint-order="fill stroke markers" d=" M 112 75 L 226 75" stroke-miterlimit="10" stroke-dasharray=""/></g><g><path fill="none" stroke="#000000" paint-order="fill stroke markers" d=" M 215.83732514237585 79.209517756016 L 226 75 L 215.83732514237585 70.79048224398402" stroke-miterlimit="10" stroke-dasharray=""/></g><g><path fill="none" stroke="#000000" paint-order="fill stroke markers" d=" M 112 115 L 178 115" stroke-miterlimit="10" stroke-dasharray=""/></g><g><path fill="none" stroke="#000000" paint-order="fill stroke markers" d=" M 167.83732514237585 119.209517756016 L 178 115 L 167.83732514237585 110.790482243984" stroke-miterlimit="10" stroke-dasharray=""/></g><g><path fill="none" stroke="#000000" paint-order="fill stroke markers" d=" M 252 72 L 378 72" stroke-miterlimit="10" stroke-dasharray=""/></g><g><path fill="none" stroke="#000000" paint-order="fill stroke markers" d=" M 367.83732514237585 76.209517756016 L 378 72 L 367.83732514237585 67.79048224398402" stroke-miterlimit="10" stroke-dasharray=""/></g><g><path fill="none" stroke="#000000" paint-order="fill stroke markers" d=" M 386 78 L 386 139" stroke-miterlimit="10" stroke-dasharray=""/></g><g><path fill="none" stroke="#000000" paint-order="fill stroke markers" d=" M 381.790482243984 128.83732514237585 L 386 139 L 390.209517756016 128.83732514237585" stroke-miterlimit="10" stroke-dasharray=""/></g><g><rect fill="#ffffff" stroke="none" x="376" y="152" width="134.39990234375" height="14" transform="matrix(1 0 0 1 -54 -53)"/></g><g><g><path fill="none" stroke="none"/><text fill="#000000" stroke="none" font-family="&quot;Source Code Pro&quot;" font-size="14px" font-style="normal" font-weight="normal" text-decoration="undefined" x="443.199951171875" y="159" text-anchor="middle" dominant-baseline="central" transform="matrix(1 0 0 1 -54 -53)"> [timer running]</text></g></g><g><path fill="none" stroke="#000000" paint-order="fill stroke markers" d=" M 401 68 L 562 68" stroke-miterlimit="10" stroke-dasharray=""/></g><g><path fill="none" stroke="#000000" paint-order="fill stroke markers" d=" M 551.8373251423759 72.20951775601598 L 562 68 L 551.8373251423758 63.790482243984016" stroke-miterlimit="10" stroke-dasharray=""/></g><g><rect fill="#ffffff" stroke="none" x="482" y="103" width="105" height="28" transform="matrix(1 0 0 1 -54 -53)"/></g><g><g><path fill="none" stroke="none"/><text fill="#000000" stroke="none" font-family="&quot;Source Code Pro&quot;" font-size="14px" font-style="normal" font-weight="normal" text-decoration="undefined" x="534.5" y="110" text-anchor="middle" dominant-baseline="central" transform="matrix(1 0 0 1 -54 -53)"> [timer not</text><text fill="#000000" stroke="none" font-family="&quot;Source Code Pro&quot;" font-size="14px" font-style="normal" font-weight="normal" text-decoration="undefined" x="534.5" y="124" text-anchor="middle" dominant-baseline="central" transform="matrix(1 0 0 1 -54 -53)">running]</text></g></g><g><path fill="none" stroke="#000000" paint-order="fill stroke markers" d=" M 570 59 L 570 19 L 386 19 L 386 59" stroke-miterlimit="10" stroke-dasharray=""/></g><g><path fill="none" stroke="#000000" paint-order="fill stroke markers" d=" M 381.790482243984 48.837325142375846 L 386 59 L 390.209517756016 48.837325142375846" stroke-miterlimit="10" stroke-dasharray=""/></g><g><rect fill="#ffffff" stroke="none" x="472" y="63" width="117.59991455078125" height="14" transform="matrix(1 0 0 1 -54 -53)"/></g><g><g><path fill="none" stroke="none"/><text fill="#000000" stroke="none" font-family="&quot;Source Code Pro&quot;" font-size="14px" font-style="normal" font-weight="normal" text-decoration="undefined" x="530.7999572753906" y="70" text-anchor="middle" dominant-baseline="central" transform="matrix(1 0 0 1 -54 -53)"> [app running]</text></g></g><g><path fill="none" stroke="#000000" paint-order="fill stroke markers" d=" M 585 67 L 698 67 L 698 147" stroke-miterlimit="10" stroke-dasharray=""/></g><g><path fill="none" stroke="#000000" paint-order="fill stroke markers" d=" M 693.790482243984 136.83732514237585 L 698 147 L 702.209517756016 136.83732514237585" stroke-miterlimit="10" stroke-dasharray=""/></g><g><rect fill="#ffffff" stroke="none" x="648" y="103" width="95" height="28" transform="matrix(1 0 0 1 -54 -53)"/></g><g><g><path fill="none" stroke="none"/><text fill="#000000" stroke="none" font-family="&quot;Source Code Pro&quot;" font-size="14px" font-style="normal" font-weight="normal" text-decoration="undefined" x="695.5" y="110" text-anchor="middle" dominant-baseline="central" transform="matrix(1 0 0 1 -54 -53)"> [app</text><text fill="#000000" stroke="none" font-family="&quot;Source Code Pro&quot;" font-size="14px" font-style="normal" font-weight="normal" text-decoration="undefined" x="695.5" y="124" text-anchor="middle" dominant-baseline="central" transform="matrix(1 0 0 1 -54 -53)">terminated]</text></g></g><g><path fill="none" stroke="#000000" paint-order="fill stroke markers" d=" M 474 166 L 562 166" stroke-miterlimit="10" stroke-dasharray=""/></g><g><path fill="none" stroke="#000000" paint-order="fill stroke markers" d=" M 551.8373251423759 170.209517756016 L 562 166 L 551.8373251423758 161.790482243984" stroke-miterlimit="10" stroke-dasharray=""/></g><g><path fill="none" stroke="#000000" paint-order="fill stroke markers" d=" M 570 174 L 570 243" stroke-miterlimit="10" stroke-dasharray=""/></g><g><path fill="none" stroke="#000000" paint-order="fill stroke markers" d=" M 565.790482243984 232.83732514237585 L 570 243 L 574.209517756016 232.83732514237585" stroke-miterlimit="10" stroke-dasharray=""/></g><g><rect fill="#ffffff" stroke="none" x="580" y="252" width="83.99993896484375" height="14" transform="matrix(1 0 0 1 -54 -53)"/></g><g><g><path fill="none" stroke="none"/><text fill="#000000" stroke="none" font-family="&quot;Source Code Pro&quot;" font-size="14px" font-style="normal" font-weight="normal" text-decoration="undefined" x="621.9999694824219" y="259" text-anchor="middle" dominant-baseline="central" transform="matrix(1 0 0 1 -54 -53)"> [ticking]</text></g></g><g><path fill="none" stroke="#000000" paint-order="fill stroke markers" d=" M 570 155 L 570 78" stroke-miterlimit="10" stroke-dasharray=""/></g><g><path fill="none" stroke="#000000" paint-order="fill stroke markers" d=" M 574.209517756016 88.16267485762415 L 570 78 L 565.790482243984 88.16267485762415" stroke-miterlimit="10" stroke-dasharray=""/></g><g><rect fill="#ffffff" stroke="none" x="560" y="165" width="140" height="14" transform="matrix(1 0 0 1 -54 -53)"/></g><g><g><path fill="none" stroke="none"/><text fill="#000000" stroke="none" font-family="&quot;Source Code Pro&quot;" font-size="14px" font-style="normal" font-weight="normal" text-decoration="undefined" x="630" y="172" text-anchor="middle" dominant-baseline="central" transform="matrix(1 0 0 1 -54 -53)"> [timer stopped]</text></g></g><g><path fill="none" stroke="#000000" paint-order="fill stroke markers" d=" M 570 285 L 570 323" stroke-miterlimit="10" stroke-dasharray=""/></g><g><path fill="none" stroke="#000000" paint-order="fill stroke markers" d=" M 565.790482243984 312.83732514237585 L 570 323 L 574.209517756016 312.83732514237585" stroke-miterlimit="10" stroke-dasharray=""/></g><g><path fill="none" stroke="#000000" paint-order="fill stroke markers" d=" M 506 371 L 466 371" stroke-miterlimit="10" stroke-dasharray=""/></g><g><path fill="none" stroke="#000000" paint-order="fill stroke markers" d=" M 476.1626748576241 366.790482243984 L 466 371 L 476.1626748576241 375.209517756016" stroke-miterlimit="10" stroke-dasharray=""/></g><g><path fill="none" stroke="#000000" paint-order="fill stroke markers" d=" M 395 243 L 395 195" stroke-miterlimit="10" stroke-dasharray=""/></g><g><path fill="none" stroke="#000000" paint-order="fill stroke markers" d=" M 399.209517756016 205.16267485762415 L 395 195 L 390.790482243984 205.16267485762415" stroke-miterlimit="10" stroke-dasharray=""/></g><g><path fill="none" stroke="#000000" paint-order="fill stroke markers" d=" M 146 192 L 186 192" stroke-miterlimit="10" stroke-dasharray=""/></g><g><path fill="none" stroke="#000000" paint-order="fill stroke markers" d=" M 175.83732514237585 196.209517756016 L 186 192 L 175.83732514237585 187.790482243984" stroke-miterlimit="10" stroke-dasharray=""/></g><g><path fill="none" stroke="#000000" paint-order="fill stroke markers" d=" M 234 141 L 234 171" stroke-miterlimit="10" stroke-dasharray=""/></g><g><path fill="none" stroke="#000000" paint-order="fill stroke markers" d=" M 229.790482243984 160.83732514237585 L 234 171 L 238.209517756016 160.83732514237585" stroke-miterlimit="10" stroke-dasharray=""/></g><g><path fill="none" stroke="#000000" paint-order="fill stroke markers" d=" M 146 256 L 226 256" stroke-miterlimit="10" stroke-dasharray=""/></g><g><path fill="none" stroke="#000000" paint-order="fill stroke markers" d=" M 215.83732514237585 260.209517756016 L 226 256 L 215.83732514237585 251.790482243984" stroke-miterlimit="10" stroke-dasharray=""/></g><g><path fill="none" stroke="#000000" paint-order="fill stroke markers" d=" M 146 320 L 194 320" stroke-miterlimit="10" stroke-dasharray=""/></g><g><path fill="none" stroke="#000000" paint-order="fill stroke markers" d=" M 183.83732514237585 324.209517756016 L 194 320 L 183.83732514237585 315.790482243984" stroke-miterlimit="10" stroke-dasharray=""/></g><g><path fill="none" stroke="#000000" paint-order="fill stroke markers" d=" M 146 384 L 226 384" stroke-miterlimit="10" stroke-dasharray=""/></g><g><path fill="none" stroke="#000000" paint-order="fill stroke markers" d=" M 215.83732514237585 388.209517756016 L 226 384 L 215.83732514237585 379.790482243984" stroke-miterlimit="10" stroke-dasharray=""/></g><g><path fill="none" stroke="#000000" paint-order="fill stroke markers" d=" M 146 456 L 186 456" stroke-miterlimit="10" stroke-dasharray=""/></g><g><path fill="none" stroke="#000000" paint-order="fill stroke markers" d=" M 175.83732514237585 460.209517756016 L 186 456 L 175.83732514237585 451.790482243984" stroke-miterlimit="10" stroke-dasharray=""/></g><g><path fill="none" stroke="#000000" paint-order="fill stroke markers" d=" M 227 555 L 266 555" stroke-miterlimit="10" stroke-dasharray=""/></g><g><path fill="none" stroke="#000000" paint-order="fill stroke markers" d=" M 255.83732514237585 559.209517756016 L 266 555 L 255.83732514237585 550.790482243984" stroke-miterlimit="10" stroke-dasharray=""/></g><g><path fill="none" stroke="#000000" paint-order="fill stroke markers" d=" M 36 552 L 74 552" stroke-miterlimit="10" stroke-dasharray=""/></g><g><path fill="none" stroke="#000000" paint-order="fill stroke markers" d=" M 63.837325142375846 556.209517756016 L 74 552 L 63.837325142375846 547.790482243984" stroke-miterlimit="10" stroke-dasharray=""/></g><g><path fill="none" stroke="#000000" paint-order="fill stroke markers" d=" M 698 189 L 698 219" stroke-miterlimit="10" stroke-dasharray=""/></g><g><path fill="none" stroke="#000000" paint-order="fill stroke markers" d=" M 693.790482243984 208.83732514237585 L 698 219 L 702.209517756016 208.83732514237585" stroke-miterlimit="10" stroke-dasharray=""/></g><g><path fill="none" stroke="#000000" paint-order="fill stroke markers" d=" M 411 552 L 450 552" stroke-miterlimit="10" stroke-dasharray=""/></g><g><path fill="none" stroke="#000000" paint-order="fill stroke markers" d=" M 439.83732514237585 556.209517756016 L 450 552 L 439.83732514237585 547.790482243984" stroke-miterlimit="10" stroke-dasharray=""/></g><g><path fill="none" stroke="#000000" paint-order="fill stroke markers" d=" M 240 371 L 240 341" stroke-miterlimit="10" stroke-dasharray=""/></g><g><path fill="none" stroke="#000000" paint-order="fill stroke markers" d=" M 244.209517756016 351.16267485762415 L 240 341 L 235.790482243984 351.16267485762415" stroke-miterlimit="10" stroke-dasharray=""/></g><g><path fill="none" stroke="#000000" paint-order="fill stroke markers" d=" M 238 243 L 238 213" stroke-miterlimit="10" stroke-dasharray=""/></g><g><path fill="none" stroke="#000000" paint-order="fill stroke markers" d=" M 242.209517756016 223.16267485762415 L 238 213 L 233.790482243984 223.16267485762415" stroke-miterlimit="10" stroke-dasharray=""/></g><g><path fill="#C0C0C0" stroke="none" paint-order="stroke fill markers" d=" M 347 354 L 462.9999084472656 354 Q 472.9999084472656 354 472.9999084472656 364 L 472.9999084472656 386 Q 472.9999084472656 396 462.9999084472656 396 L 347 396 Q 337 396 337 386 L 337 364 Q 337 354 347 354 Z" fill-opacity="0.2"/></g><g><path fill="#ffffff" stroke="none" paint-order="stroke fill markers" d=" M 340 347 L 455.9999084472656 347 Q 465.9999084472656 347 465.9999084472656 357 L 465.9999084472656 379 Q 465.9999084472656 389 455.9999084472656 389 L 340 389 Q 330 389 330 379 L 330 357 Q 330 347 340 347 Z"/></g><g><path fill="none" stroke="#000000" paint-order="fill stroke markers" d=" M 340 347 L 455.9999084472656 347 Q 465.9999084472656 347 465.9999084472656 357 L 465.9999084472656 379 Q 465.9999084472656 389 455.9999084472656 389 L 340 389 Q 330 389 330 379 L 330 357 Q 330 347 340 347 Z" stroke-miterlimit="10" stroke-dasharray=""/></g><g><g><path fill="none" stroke="none"/><text fill="#000000" stroke="none" font-family="&quot;Source Code Pro&quot;" font-size="14px" font-style="normal" font-weight="bold" text-decoration="undefined" x="452.4999542236328" y="414" text-anchor="middle" dominant-baseline="central" transform="matrix(1 0 0 1 -54 -53)">offset time = 0</text></g></g><g><path fill="none" stroke="#000000" paint-order="fill stroke markers" d=" M 398 347 L 398 299" stroke-miterlimit="10" stroke-dasharray=""/></g><g><path fill="none" stroke="#000000" paint-order="fill stroke markers" d=" M 402.209517756016 309.16267485762415 L 398 299 L 393.790482243984 309.16267485762415" stroke-miterlimit="10" stroke-dasharray=""/></g></g></svg>