<svg version="1.1" xmlns="http://www.w3.org/2000/svg" xmlns:xlink="http://www.w3.org/1999/xlink" width="408.9997253417969" height="551"><defs/><g><g><rect fill="#C0C0C0" stroke="none" x="135" y="111" width="387.9997253417969" height="250" transform="matrix(1 0 0 1 -118 -94)" fill-opacity="0.2"/></g><g><rect fill="#ffffff" stroke="none" x="128" y="104" width="387.9997253417969" height="250" transform="matrix(1 0 0 1 -118 -94)"/></g><g><path fill="none" stroke="#000000" paint-order="fill stroke markers" d=" M 10 10 L 397.9997253417969 10 L 397.9997253417969 260 L 10 260 L 10 10 Z Z" stroke-miterlimit="10" stroke-dasharray=""/></g><g><path fill="none" stroke="#000000" paint-order="fill stroke markers" d=" M 10 36 L 398.9997253417969 36" stroke-miterlimit="10" stroke-dasharray=""/></g><g><path fill="none" stroke="#000000" paint-order="fill stroke markers" d=" M 10 108 L 398.9997253417969 108" stroke-miterlimit="10" stroke-dasharray=""/></g><g><g><path fill="none" stroke="none"/><text fill="#000000" stroke="none" font-family="&quot;Source Code Pro&quot;" font-size="14px" font-style="normal" font-weight="bold" text-decoration="undefined" x="322.49986267089844" y="118" text-anchor="middle" dominant-baseline="central" transform="matrix(1 0 0 1 -118 -94)">Ticker</text></g></g><g><g><path fill="none" stroke="none"/><text fill="#000000" stroke="none" font-family="&quot;Source Code Pro&quot;" font-size="14px" font-style="normal" font-weight="normal" text-decoration="undefined" x="133" y="142" text-anchor="start" dominant-baseline="central" transform="matrix(1 0 0 1 -118 -94)">+Updatables: List&lt;IUpdate&gt;</text></g></g><g><g><path fill="none" stroke="none"/><text fill="#000000" stroke="none" font-family="&quot;Source Code Pro&quot;" font-size="14px" font-style="normal" font-weight="normal" text-decoration="undefined" x="133" y="158" text-anchor="start" dominant-baseline="central" transform="matrix(1 0 0 1 -118 -94)">-Timer: Stopwatch</text></g></g><g><g><path fill="none" stroke="none"/><text fill="#000000" stroke="none" font-family="&quot;Source Code Pro&quot;" font-size="14px" font-style="normal" font-weight="normal" text-decoration="undefined" x="133" y="174" text-anchor="start" dominant-baseline="central" transform="matrix(1 0 0 1 -118 -94)">-PrevTime: TimeSpan</text></g></g><g><g><path fill="none" stroke="none"/><text fill="#000000" stroke="none" font-family="&quot;Source Code Pro&quot;" font-size="14px" font-style="normal" font-weight="normal" text-decoration="undefined" x="133" y="190" text-anchor="start" dominant-baseline="central" transform="matrix(1 0 0 1 -118 -94)">-OffsetTime: TimeSpan</text></g></g><g><g><path fill="none" stroke="none"/><text fill="#000000" stroke="none" font-family="&quot;Source Code Pro&quot;" font-size="14px" font-style="normal" font-weight="normal" text-decoration="undefined" x="133" y="214" text-anchor="start" dominant-baseline="central" transform="matrix(1 0 0 1 -118 -94)">+IsRunning(): bool</text></g></g><g><g><path fill="none" stroke="none"/><text fill="#000000" stroke="none" font-family="&quot;Source Code Pro&quot;" font-size="14px" font-style="normal" font-weight="normal" text-decoration="undefined" x="133" y="230" text-anchor="start" dominant-baseline="central" transform="matrix(1 0 0 1 -118 -94)">+Start(): void</text></g></g><g><g><path fill="none" stroke="none"/><text fill="#000000" stroke="none" font-family="&quot;Source Code Pro&quot;" font-size="14px" font-style="normal" font-weight="normal" text-decoration="undefined" x="133" y="246" text-anchor="start" dominant-baseline="central" transform="matrix(1 0 0 1 -118 -94)">+Restart(): void</text></g></g><g><g><path fill="none" stroke="none"/><text fill="#000000" stroke="none" font-family="&quot;Source Code Pro&quot;" font-size="14px" font-style="normal" font-weight="normal" text-decoration="undefined" x="133" y="262" text-anchor="start" dominant-baseline="central" transform="matrix(1 0 0 1 -118 -94)">+Pause(): void</text></g></g><g><g><path fill="none" stroke="none"/><text fill="#000000" stroke="none" font-family="&quot;Source Code Pro&quot;" font-size="14px" font-style="normal" font-weight="normal" text-decoration="undefined" x="133" y="278" text-anchor="start" dominant-baseline="central" transform="matrix(1 0 0 1 -118 -94)">+Reset(): void</text></g></g><g><g><path fill="none" stroke="none"/><text fill="#000000" stroke="none" font-family="&quot;Source Code Pro&quot;" font-size="14px" font-style="normal" font-weight="normal" text-decoration="undefined" x="133" y="294" text-anchor="start" dominant-baseline="central" transform="matrix(1 0 0 1 -118 -94)">+GetTime(): TimeSpan</text></g></g><g><g><path fill="none" stroke="none"/><text fill="#000000" stroke="none" font-family="&quot;Source Code Pro&quot;" font-size="14px" font-style="normal" font-weight="normal" text-decoration="undefined" x="133" y="310" text-anchor="start" dominant-baseline="central" transform="matrix(1 0 0 1 -118 -94)">+Offset(change: TimeSpan): void</text></g></g><g><g><path fill="none" stroke="none"/><text fill="#000000" stroke="none" font-family="&quot;Source Code Pro&quot;" font-size="14px" font-style="normal" font-weight="normal" text-decoration="undefined" x="133" y="326" text-anchor="start" dominant-baseline="central" transform="matrix(1 0 0 1 -118 -94)">+ReceiveUpdatable(updatable: Updatable): void</text></g></g><g><g><path fill="none" stroke="none"/><text fill="#000000" stroke="none" font-family="&quot;Source Code Pro&quot;" font-size="14px" font-style="normal" font-weight="normal" text-decoration="undefined" x="133" y="342" text-anchor="start" dominant-baseline="central" transform="matrix(1 0 0 1 -118 -94)">+PerformTick(): void</text></g></g><g><rect fill="#C0C0C0" stroke="none" x="191" y="431" width="278.7998046875" height="90" transform="matrix(1 0 0 1 -118 -94)" fill-opacity="0.2"/></g><g><rect fill="#ffffff" stroke="none" x="184" y="424" width="278.7998046875" height="90" transform="matrix(1 0 0 1 -118 -94)"/></g><g><path fill="none" stroke="#000000" paint-order="fill stroke markers" d=" M 66 330 L 344.7998046875 330 L 344.7998046875 420 L 66 420 L 66 330 Z Z" stroke-miterlimit="10" stroke-dasharray=""/></g><g><path fill="none" stroke="#000000" paint-order="fill stroke markers" d=" M 66 356 L 345.7998046875 356" stroke-miterlimit="10" stroke-dasharray=""/></g><g><path fill="none" stroke="#000000" paint-order="fill stroke markers" d=" M 66 380 L 345.7998046875 380" stroke-miterlimit="10" stroke-dasharray=""/></g><g><g><path fill="none" stroke="none"/><text fill="#000000" stroke="none" font-family="&quot;Source Code Pro&quot;" font-size="14px" font-style="italic" font-weight="bold" text-decoration="undefined" x="323.89990234375" y="438" text-anchor="middle" dominant-baseline="central" transform="matrix(1 0 0 1 -118 -94)">Updatable</text></g></g><g><g><path fill="none" stroke="none"/><text fill="#000000" stroke="none" font-family="&quot;Source Code Pro&quot;" font-size="14px" font-style="normal" font-weight="normal" text-decoration="undefined" x="189" y="462" text-anchor="start" dominant-baseline="central" transform="matrix(1 0 0 1 -118 -94)">#Order: int = 10 {readOnly}</text></g></g><g><g><path fill="none" stroke="none"/><text fill="#000000" stroke="none" font-family="&quot;Source Code Pro&quot;" font-size="14px" font-style="italic" font-weight="normal" text-decoration="undefined" x="189" y="486" text-anchor="start" dominant-baseline="central" transform="matrix(1 0 0 1 -118 -94)">+Update(deltaTime: double): void</text></g></g><g><g><path fill="none" stroke="none"/><text fill="#000000" stroke="none" font-family="&quot;Source Code Pro&quot;" font-size="14px" font-style="normal" font-weight="normal" text-decoration="undefined" x="189" y="502" text-anchor="start" dominant-baseline="central" transform="matrix(1 0 0 1 -118 -94)">+CompareTo(that: Updatable): int</text></g></g><g><rect fill="#C0C0C0" stroke="none" x="263" y="602" width="122.39993286132812" height="40" transform="matrix(1 0 0 1 -118 -94)" fill-opacity="0.2"/></g><g><rect fill="#C0C0C0" stroke="none" x="318.1999816894531" y="583" width="77.199951171875" height="24" transform="matrix(1 0 0 1 -118 -94)" fill-opacity="0.2"/></g><g><rect fill="#ffffff" stroke="none" x="256" y="595" width="122.39993286132812" height="40" transform="matrix(1 0 0 1 -118 -94)"/></g><g><path fill="none" stroke="#000000" paint-order="fill stroke markers" d=" M 138 501 L 260.3999328613281 501 L 260.3999328613281 541 L 138 541 L 138 501 Z Z" stroke-miterlimit="10" stroke-dasharray=""/></g><g><g><path fill="none" stroke="none"/><text fill="#000000" stroke="none" font-family="&quot;Source Code Pro&quot;" font-size="14px" font-style="normal" font-weight="normal" text-decoration="undefined" x="317.69996643066406" y="607" text-anchor="middle" dominant-baseline="central" transform="matrix(1 0 0 1 -118 -94)">«interface»</text></g></g><g><g><path fill="none" stroke="none"/><text fill="#000000" stroke="none" font-family="&quot;Source Code Pro&quot;" font-size="14px" font-style="normal" font-weight="bold" text-decoration="undefined" x="317.69996643066406" y="623" text-anchor="middle" dominant-baseline="central" transform="matrix(1 0 0 1 -118 -94)">IComparable</text></g></g><g><rect fill="#ffffff" stroke="none" x="311.1999816894531" y="576" width="77.199951171875" height="24" transform="matrix(1 0 0 1 -118 -94)"/></g><g><path fill="none" stroke="#000000" paint-order="fill stroke markers" d=" M 193.19998168945312 482 L 270.3999328613281 482 L 270.3999328613281 506 L 193.19998168945312 506 L 193.19998168945312 482 Z Z" stroke-miterlimit="10" stroke-dasharray="3"/></g><g><g><path fill="none" stroke="none"/><text fill="#000000" stroke="none" font-family="&quot;Source Code Pro&quot;" font-size="14px" font-style="normal" font-weight="normal" text-decoration="undefined" x="316.1999816894531" y="588" text-anchor="start" dominant-baseline="central" transform="matrix(1 0 0 1 -118 -94)">T: class</text></g></g><g><path fill="none" stroke="#000000" paint-order="fill stroke markers" d=" M 202 420 L 202 482" stroke-miterlimit="10" stroke-dasharray="3"/></g><g><path fill="#FFFFFF" stroke="none" paint-order="stroke fill markers" d=" M 193.580964487968 461.6746502847517 L 202 482 L 210.419035512032 461.6746502847517"/></g><g><path fill="none" stroke="#000000" paint-order="fill stroke markers" d=" M 193.580964487968 461.6746502847517 L 202 482 L 210.419035512032 461.6746502847517 L 193.580964487968 461.6746502847517" stroke-miterlimit="10" stroke-dasharray=""/></g><g><rect fill="#ffffff" stroke="none" x="324" y="540" width="125.99990844726562" height="14" transform="matrix(1 0 0 1 -118 -94)"/></g><g><g><path fill="none" stroke="none"/><text fill="#000000" stroke="none" font-family="&quot;Source Code Pro&quot;" font-size="14px" font-style="normal" font-weight="normal" text-decoration="undefined" x="386.9999542236328" y="547" text-anchor="middle" dominant-baseline="central" transform="matrix(1 0 0 1 -118 -94)">T -&gt; Updatable </text></g></g><g><rect fill="#ffffff" stroke="none" x="324" y="524" width="50.39996337890625" height="14" transform="matrix(1 0 0 1 -118 -94)"/></g><g><g><path fill="none" stroke="none"/><text fill="#000000" stroke="none" font-family="&quot;Source Code Pro&quot;" font-size="14px" font-style="normal" font-weight="normal" text-decoration="undefined" x="349.1999816894531" y="531" text-anchor="middle" dominant-baseline="central" transform="matrix(1 0 0 1 -118 -94)">«bind»</text></g></g><g><path fill="none" stroke="#000000" paint-order="fill stroke markers" d=" M 202 330 L 202 260" stroke-miterlimit="10" stroke-dasharray=""/></g><g><path fill="#000000" stroke="none" paint-order="stroke fill markers" d=" M 206.209517756016 270.16267485762415 L 202 260 L 197.790482243984 270.16267485762415 L 202 282"/></g><g><path fill="none" stroke="#000000" paint-order="fill stroke markers" d=" M 206.209517756016 270.16267485762415 L 202 260 L 197.790482243984 270.16267485762415 L 202 282 L 206.209517756016 270.16267485762415" stroke-miterlimit="10" stroke-dasharray=""/></g><g><rect fill="#ffffff" stroke="none" x="328" y="395" width="33.5999755859375" height="14" transform="matrix(1 0 0 1 -118 -94)"/></g><g><g><path fill="none" stroke="none"/><text fill="#000000" stroke="none" font-family="&quot;Source Code Pro&quot;" font-size="14px" font-style="normal" font-weight="normal" text-decoration="undefined" x="344.79998779296875" y="402" text-anchor="middle" dominant-baseline="central" transform="matrix(1 0 0 1 -118 -94)">0..*</text></g></g><g><rect fill="#ffffff" stroke="none" x="328" y="368" width="8.399993896484375" height="14" transform="matrix(1 0 0 1 -118 -94)"/></g><g><g><path fill="none" stroke="none"/><text fill="#000000" stroke="none" font-family="&quot;Source Code Pro&quot;" font-size="14px" font-style="normal" font-weight="normal" text-decoration="undefined" x="332.1999969482422" y="375" text-anchor="middle" dominant-baseline="central" transform="matrix(1 0 0 1 -118 -94)">1</text></g></g></g></svg>