<svg version="1.1" xmlns="http://www.w3.org/2000/svg" xmlns:xlink="http://www.w3.org/1999/xlink" width="522.5999450683594" height="412"><defs/><g><g><rect fill="#C0C0C0" stroke="none" x="255" y="111" width="276" height="392" transform="matrix(1 0 0 1 -142 -94)" fill-opacity="0.2"/></g><g><rect fill="#ffffff" stroke="none" x="248" y="104" width="276" height="392" transform="matrix(1 0 0 1 -142 -94)"/></g><g><path fill="none" stroke="#000000" paint-order="fill stroke markers" d=" M 106 10 L 382 10 L 382 402 L 106 402 L 106 10 Z Z" stroke-miterlimit="10" stroke-dasharray=""/></g><g><g><path fill="none" stroke="none"/><text fill="#000000" stroke="none" font-family="&quot;Source Code Pro&quot;" font-size="14px" font-style="normal" font-weight="bold" text-decoration="undefined" x="386.5" y="118" text-anchor="middle" dominant-baseline="central" transform="matrix(1 0 0 1 -142 -94)">deltaTime Calculator</text></g></g><g><path fill="#C0C0C0" stroke="none" paint-order="stroke fill markers" d=" M 129 67 C 129 57.0588736 158.54920320000002 49 195 49 C 231.45079679999998 49 261 57.0588736 261 67 C 261 76.9411264 231.45079679999998 85 195 85 C 158.54920320000002 85 129 76.9411264 129 67 Z" fill-opacity="0.2"/></g><g><path fill="#ffffff" stroke="none" paint-order="stroke fill markers" d=" M 122 60 C 122 50.0588736 151.54920320000002 42 188 42 C 224.45079679999998 42 254 50.0588736 254 60 C 254 69.9411264 224.45079679999998 78 188 78 C 151.54920320000002 78 122 69.9411264 122 60 Z"/></g><g><path fill="none" stroke="#000000" paint-order="fill stroke markers" d=" M 122 60 C 122 50.0588736 151.54920320000002 42 188 42 C 224.45079679999998 42 254 50.0588736 254 60 C 254 69.9411264 224.45079679999998 78 188 78 C 151.54920320000002 78 122 69.9411264 122 60 Z" stroke-miterlimit="10" stroke-dasharray=""/></g><g><g><path fill="none" stroke="none"/><text fill="#000000" stroke="none" font-family="&quot;Source Code Pro&quot;" font-size="14px" font-style="normal" font-weight="bold" text-decoration="undefined" x="330" y="155" text-anchor="middle" dominant-baseline="central" transform="matrix(1 0 0 1 -142 -94)">Start Time</text></g></g><g><path fill="#C0C0C0" stroke="none" paint-order="stroke fill markers" d=" M 217 107 C 217 97.0588736 251.92178560000002 89 295 89 C 338.0782144 89 373 97.0588736 373 107 C 373 116.9411264 338.0782144 125 295 125 C 251.92178560000002 125 217 116.9411264 217 107 Z" fill-opacity="0.2"/></g><g><path fill="#ffffff" stroke="none" paint-order="stroke fill markers" d=" M 210 100 C 210 90.0588736 244.92178560000002 82 288 82 C 331.0782144 82 366 90.0588736 366 100 C 366 109.9411264 331.0782144 118 288 118 C 244.92178560000002 118 210 109.9411264 210 100 Z"/></g><g><path fill="none" stroke="#000000" paint-order="fill stroke markers" d=" M 210 100 C 210 90.0588736 244.92178560000002 82 288 82 C 331.0782144 82 366 90.0588736 366 100 C 366 109.9411264 331.0782144 118 288 118 C 244.92178560000002 118 210 109.9411264 210 100 Z" stroke-miterlimit="10" stroke-dasharray=""/></g><g><g><path fill="none" stroke="none"/><text fill="#000000" stroke="none" font-family="&quot;Source Code Pro&quot;" font-size="14px" font-style="normal" font-weight="bold" text-decoration="undefined" x="430" y="195" text-anchor="middle" dominant-baseline="central" transform="matrix(1 0 0 1 -142 -94)">Restart Time</text></g></g><g><path fill="#C0C0C0" stroke="none" paint-order="stroke fill markers" d=" M 127 147 C 127 137.0588736 156.54920320000002 129 193 129 C 229.45079679999998 129 259 137.0588736 259 147 C 259 156.9411264 229.45079679999998 165 193 165 C 156.54920320000002 165 127 156.9411264 127 147 Z" fill-opacity="0.2"/></g><g><path fill="#ffffff" stroke="none" paint-order="stroke fill markers" d=" M 120 140 C 120 130.0588736 149.54920320000002 122 186 122 C 222.45079679999998 122 252 130.0588736 252 140 C 252 149.9411264 222.45079679999998 158 186 158 C 149.54920320000002 158 120 149.9411264 120 140 Z"/></g><g><path fill="none" stroke="#000000" paint-order="fill stroke markers" d=" M 120 140 C 120 130.0588736 149.54920320000002 122 186 122 C 222.45079679999998 122 252 130.0588736 252 140 C 252 149.9411264 222.45079679999998 158 186 158 C 149.54920320000002 158 120 149.9411264 120 140 Z" stroke-miterlimit="10" stroke-dasharray=""/></g><g><g><path fill="none" stroke="none"/><text fill="#000000" stroke="none" font-family="&quot;Source Code Pro&quot;" font-size="14px" font-style="normal" font-weight="bold" text-decoration="undefined" x="328" y="235" text-anchor="middle" dominant-baseline="central" transform="matrix(1 0 0 1 -142 -94)">Pause Time</text></g></g><g><path fill="#C0C0C0" stroke="none" paint-order="stroke fill markers" d=" M 241 187 C 241 177.05887360000003 270.5492032 169 307 169 C 343.4507968 169 373 177.05887360000003 373 187 C 373 196.94112639999997 343.4507968 205 307 205 C 270.5492032 205 241 196.94112639999997 241 187 Z" fill-opacity="0.2"/></g><g><path fill="#ffffff" stroke="none" paint-order="stroke fill markers" d=" M 234 180 C 234 170.05887360000003 263.5492032 162 300 162 C 336.4507968 162 366 170.05887360000003 366 180 C 366 189.94112639999997 336.4507968 198 300 198 C 263.5492032 198 234 189.94112639999997 234 180 Z"/></g><g><path fill="none" stroke="#000000" paint-order="fill stroke markers" d=" M 234 180 C 234 170.05887360000003 263.5492032 162 300 162 C 336.4507968 162 366 170.05887360000003 366 180 C 366 189.94112639999997 336.4507968 198 300 198 C 263.5492032 198 234 189.94112639999997 234 180 Z" stroke-miterlimit="10" stroke-dasharray=""/></g><g><g><path fill="none" stroke="none"/><text fill="#000000" stroke="none" font-family="&quot;Source Code Pro&quot;" font-size="14px" font-style="normal" font-weight="bold" text-decoration="undefined" x="442" y="275" text-anchor="middle" dominant-baseline="central" transform="matrix(1 0 0 1 -142 -94)">Reset Time</text></g></g><g><path fill="#C0C0C0" stroke="none" paint-order="stroke fill markers" d=" M 129 229 C 129 213.53602560000002 156.08676960000003 201 189.5 201 C 222.91323039999997 201 250 213.53602560000002 250 229 C 250 244.46397439999998 222.91323039999997 257 189.5 257 C 156.08676960000003 257 129 244.46397439999998 129 229 Z" fill-opacity="0.2"/></g><g><path fill="#ffffff" stroke="none" paint-order="stroke fill markers" d=" M 122 222 C 122 206.53602560000002 149.08676960000003 194 182.5 194 C 215.91323039999997 194 243 206.53602560000002 243 222 C 243 237.46397439999998 215.91323039999997 250 182.5 250 C 149.08676960000003 250 122 237.46397439999998 122 222 Z"/></g><g><path fill="none" stroke="#000000" paint-order="fill stroke markers" d=" M 122 222 C 122 206.53602560000002 149.08676960000003 194 182.5 194 C 215.91323039999997 194 243 206.53602560000002 243 222 C 243 237.46397439999998 215.91323039999997 250 182.5 250 C 149.08676960000003 250 122 237.46397439999998 122 222 Z" stroke-miterlimit="10" stroke-dasharray=""/></g><g><g><path fill="none" stroke="none"/><text fill="#000000" stroke="none" font-family="&quot;Source Code Pro&quot;" font-size="14px" font-style="normal" font-weight="bold" text-decoration="undefined" x="324.5" y="310" text-anchor="middle" dominant-baseline="central" transform="matrix(1 0 0 1 -142 -94)">Calculate</text><text fill="#000000" stroke="none" font-family="&quot;Source Code Pro&quot;" font-size="14px" font-style="normal" font-weight="bold" text-decoration="undefined" x="324.5" y="324" text-anchor="middle" dominant-baseline="central" transform="matrix(1 0 0 1 -142 -94)">deltaTime</text></g></g><g><path fill="#C0C0C0" stroke="none" paint-order="stroke fill markers" d=" M 249 325 C 249 309.5360256 276.0867696 297 309.5 297 C 342.9132304 297 370 309.5360256 370 325 C 370 340.4639744 342.9132304 353 309.5 353 C 276.0867696 353 249 340.4639744 249 325 Z" fill-opacity="0.2"/></g><g><path fill="#ffffff" stroke="none" paint-order="stroke fill markers" d=" M 242 318 C 242 302.5360256 269.0867696 290 302.5 290 C 335.9132304 290 363 302.5360256 363 318 C 363 333.4639744 335.9132304 346 302.5 346 C 269.0867696 346 242 333.4639744 242 318 Z"/></g><g><path fill="none" stroke="#000000" paint-order="fill stroke markers" d=" M 242 318 C 242 302.5360256 269.0867696 290 302.5 290 C 335.9132304 290 363 302.5360256 363 318 C 363 333.4639744 335.9132304 346 302.5 346 C 269.0867696 346 242 333.4639744 242 318 Z" stroke-miterlimit="10" stroke-dasharray=""/></g><g><g><path fill="none" stroke="none"/><text fill="#000000" stroke="none" font-family="&quot;Source Code Pro&quot;" font-size="14px" font-style="normal" font-weight="bold" text-decoration="undefined" x="444.5" y="406" text-anchor="middle" dominant-baseline="central" transform="matrix(1 0 0 1 -142 -94)">Offset</text><text fill="#000000" stroke="none" font-family="&quot;Source Code Pro&quot;" font-size="14px" font-style="normal" font-weight="bold" text-decoration="undefined" x="444.5" y="420" text-anchor="middle" dominant-baseline="central" transform="matrix(1 0 0 1 -142 -94)">deltaTime</text></g></g><g><path fill="#ffffff" stroke="none" paint-order="stroke fill markers" d=" M 22.959987792968747 115.85 C 22.959987792968747 110.96227952000001 26.917790160968735 107 31.79998779296875 107 C 36.682185424968765 107 40.63998779296875 110.96227952000001 40.63998779296875 115.85 C 40.63998779296875 120.73772047999998 36.682185424968765 124.69999999999999 31.79998779296875 124.69999999999999 C 26.917790160968735 124.69999999999999 22.959987792968747 120.73772047999998 22.959987792968747 115.85 Z"/></g><g><path fill="none" stroke="#000000" paint-order="fill stroke markers" d=" M 22.959987792968747 115.85 C 22.959987792968747 110.96227952000001 26.917790160968735 107 31.79998779296875 107 C 36.682185424968765 107 40.63998779296875 110.96227952000001 40.63998779296875 115.85 C 40.63998779296875 120.73772047999998 36.682185424968765 124.69999999999999 31.79998779296875 124.69999999999999 C 26.917790160968735 124.69999999999999 22.959987792968747 120.73772047999998 22.959987792968747 115.85 Z" stroke-miterlimit="10" stroke-dasharray=""/></g><g><path fill="none" stroke="#000000" paint-order="fill stroke markers" d=" M 31.79998779296875 124.69999999999999 L 31.79998779296875 142.3" stroke-miterlimit="10" stroke-dasharray=""/></g><g><path fill="none" stroke="#000000" paint-order="fill stroke markers" d=" M 22.439987792968736 131.3 L 41.159987792968764 131.3" stroke-miterlimit="10" stroke-dasharray=""/></g><g><path fill="none" stroke="#000000" paint-order="fill stroke markers" d=" M 31.79998779296875 142.3 L 18.79998779296875 160" stroke-miterlimit="10" stroke-dasharray=""/></g><g><path fill="none" stroke="#000000" paint-order="fill stroke markers" d=" M 31.79998779296875 142.3 L 44.79998779296875 160" stroke-miterlimit="10" stroke-dasharray=""/></g><g><g><path fill="none" stroke="none"/><text fill="#000000" stroke="none" font-family="&quot;Source Code Pro&quot;" font-size="14px" font-style="normal" font-weight="bold" text-decoration="undefined" x="174.29998779296875" y="269" text-anchor="middle" dominant-baseline="central" transform="matrix(1 0 0 1 -142 -94)">User</text></g></g><g><path fill="none" stroke="#000000" paint-order="fill stroke markers" d=" M 54 138 L 82 138 L 82 58 L 122 58" stroke-miterlimit="10" stroke-dasharray=""/></g><g><path fill="none" stroke="#000000" paint-order="fill stroke markers" d=" M 54 138 L 82 138 L 82 98 L 210 98" stroke-miterlimit="10" stroke-dasharray=""/></g><g><path fill="none" stroke="#000000" paint-order="fill stroke markers" d=" M 54 138 L 120 138" stroke-miterlimit="10" stroke-dasharray=""/></g><g><path fill="none" stroke="#000000" paint-order="fill stroke markers" d=" M 54 138 L 82 138 L 82 180 L 234 180" stroke-miterlimit="10" stroke-dasharray=""/></g><g><path fill="none" stroke="#000000" paint-order="fill stroke markers" d=" M 54 138 L 82 138 L 82 314 L 242 314" stroke-miterlimit="10" stroke-dasharray=""/></g><g><path fill="none" stroke="#000000" paint-order="fill stroke markers" d=" M 266 289 L 218 251" stroke-miterlimit="10" stroke-dasharray="3"/></g><g><path fill="none" stroke="#000000" paint-order="fill stroke markers" d=" M 228.58086285300095 254.00754738715517 L 218 251 L 223.3551427219645 260.60845702635913" stroke-miterlimit="10" stroke-dasharray=""/></g><g><rect fill="#ffffff" stroke="none" x="356" y="361" width="67.199951171875" height="14" transform="matrix(1 0 0 1 -142 -94)"/></g><g><g><path fill="none" stroke="none"/><text fill="#000000" stroke="none" font-family="&quot;Source Code Pro&quot;" font-size="14px" font-style="normal" font-weight="normal" text-decoration="undefined" x="389.5999755859375" y="368" text-anchor="middle" dominant-baseline="central" transform="matrix(1 0 0 1 -142 -94)">«extend»</text></g></g><g><path fill="#ffffff" stroke="none" paint-order="stroke fill markers" d=" M 459.95997253417966 203.85000000000002 C 459.95997253417966 198.96227952000004 463.91777490217964 195 468.7999725341797 195 C 473.68217016617973 195 477.6399725341797 198.96227952000004 477.6399725341797 203.85000000000002 C 477.6399725341797 208.73772048 473.68217016617973 212.7 468.7999725341797 212.7 C 463.91777490217964 212.7 459.95997253417966 208.73772048 459.95997253417966 203.85000000000002 Z"/></g><g><path fill="none" stroke="#000000" paint-order="fill stroke markers" d=" M 459.95997253417966 203.85000000000002 C 459.95997253417966 198.96227952000004 463.91777490217964 195 468.7999725341797 195 C 473.68217016617973 195 477.6399725341797 198.96227952000004 477.6399725341797 203.85000000000002 C 477.6399725341797 208.73772048 473.68217016617973 212.7 468.7999725341797 212.7 C 463.91777490217964 212.7 459.95997253417966 208.73772048 459.95997253417966 203.85000000000002 Z" stroke-miterlimit="10" stroke-dasharray=""/></g><g><path fill="none" stroke="#000000" paint-order="fill stroke markers" d=" M 468.7999725341797 212.7 L 468.7999725341797 230.3" stroke-miterlimit="10" stroke-dasharray=""/></g><g><path fill="none" stroke="#000000" paint-order="fill stroke markers" d=" M 459.4399725341797 219.3 L 478.1599725341797 219.3" stroke-miterlimit="10" stroke-dasharray=""/></g><g><path fill="none" stroke="#000000" paint-order="fill stroke markers" d=" M 468.7999725341797 230.3 L 455.7999725341797 248" stroke-miterlimit="10" stroke-dasharray=""/></g><g><path fill="none" stroke="#000000" paint-order="fill stroke markers" d=" M 468.7999725341797 230.3 L 481.7999725341797 248" stroke-miterlimit="10" stroke-dasharray=""/></g><g><g><path fill="none" stroke="none"/><text fill="#000000" stroke="none" font-family="&quot;Source Code Pro&quot;" font-size="14px" font-style="normal" font-weight="bold" text-decoration="undefined" x="611.2999725341797" y="357" text-anchor="middle" dominant-baseline="central" transform="matrix(1 0 0 1 -142 -94)">Updatable</text></g></g><g><path fill="none" stroke="#000000" paint-order="fill stroke markers" d=" M 426 226 L 243 226" stroke-miterlimit="10" stroke-dasharray=""/></g><g><path fill="#C0C0C0" stroke="none" paint-order="stroke fill markers" d=" M 129 365 C 129 349.5360256 156.08676960000003 337 189.5 337 C 222.91323039999997 337 250 349.5360256 250 365 C 250 380.4639744 222.91323039999997 393 189.5 393 C 156.08676960000003 393 129 380.4639744 129 365 Z" fill-opacity="0.2"/></g><g><path fill="#ffffff" stroke="none" paint-order="stroke fill markers" d=" M 122 358 C 122 342.5360256 149.08676960000003 330 182.5 330 C 215.91323039999997 330 243 342.5360256 243 358 C 243 373.4639744 215.91323039999997 386 182.5 386 C 149.08676960000003 386 122 373.4639744 122 358 Z"/></g><g><path fill="none" stroke="#000000" paint-order="fill stroke markers" d=" M 122 358 C 122 342.5360256 149.08676960000003 330 182.5 330 C 215.91323039999997 330 243 342.5360256 243 358 C 243 373.4639744 215.91323039999997 386 182.5 386 C 149.08676960000003 386 122 373.4639744 122 358 Z" stroke-miterlimit="10" stroke-dasharray=""/></g><g><g><path fill="none" stroke="none"/><text fill="#000000" stroke="none" font-family="&quot;Source Code Pro&quot;" font-size="14px" font-style="normal" font-weight="bold" text-decoration="undefined" x="324.5" y="446" text-anchor="middle" dominant-baseline="central" transform="matrix(1 0 0 1 -142 -94)">Add</text><text fill="#000000" stroke="none" font-family="&quot;Source Code Pro&quot;" font-size="14px" font-style="normal" font-weight="bold" text-decoration="undefined" x="324.5" y="460" text-anchor="middle" dominant-baseline="central" transform="matrix(1 0 0 1 -142 -94)">updatable</text></g></g><g><path fill="none" stroke="#000000" paint-order="fill stroke markers" d=" M 54 138 L 82 138 L 82 354 L 122 354" stroke-miterlimit="10" stroke-dasharray=""/></g></g></svg>